<?xml version="1.0" encoding="UTF-8" standalone="no"?>
<!-- Created with Inkscape (http://www.inkscape.org/) -->

<svg
   width="4mm"
   height="5mm"
   viewBox="0 0 4 5"
   version="1.1"
   id="svg5"
   xmlns="http://www.w3.org/2000/svg">
  <defs
     id="defs2">
    <clipPath
       clipPathUnits="userSpaceOnUse"
       id="clipPath8129">
      <rect
         style="fill:#ffffff;stroke:#ffffff;stroke-width:0.223;stroke-linecap:round;stroke-opacity:1"
         id="rect8131"
         width="14.620998"
         height="16.154671"
         x="46.521358"
         y="39.364227" />
    </clipPath>
    <clipPath
       clipPathUnits="userSpaceOnUse"
       id="clipPath8133">
      <rect
         style="fill:#ffffff;stroke:#ffffff;stroke-width:0.223;stroke-linecap:round;stroke-opacity:1"
         id="rect8135"
         width="14.620998"
         height="16.154671"
         x="46.521358"
         y="39.364227" />
    </clipPath>
    <clipPath
       clipPathUnits="userSpaceOnUse"
       id="clipPath16008">
      <circle
         style="display:none;fill:#ffffff;stroke:#ffffff;stroke-width:0.223;stroke-linecap:round;stroke-opacity:1"
         id="circle16010"
         r="0.15975742"
         cy="2.4222431"
         cx="2.061419"
         transform="rotate(-45)"
         d="M 2.2211764,2.4222431 A 0.15975742,0.15975742 0 0 1 2.061419,2.5820005 0.15975742,0.15975742 0 0 1 1.9016616,2.4222431 0.15975742,0.15975742 0 0 1 2.061419,2.2624857 0.15975742,0.15975742 0 0 1 2.2211764,2.4222431 Z" />
      <path
         id="lpe_path-effect16028"
         style="fill:#ffffff;stroke:#ffffff;stroke-width:0.223;stroke-linecap:round;stroke-opacity:1"
         class="powerclip"
         d="M -2.1253986,-6.2290009 H 8.3687186 V 6.7593957 H -2.1253986 Z m 4.346575,8.651244 A 0.15975742,0.15975742 0 0 0 2.061419,2.2624857 0.15975742,0.15975742 0 0 0 1.9016616,2.4222431 0.15975742,0.15975742 0 0 0 2.061419,2.5820005 0.15975742,0.15975742 0 0 0 2.2211764,2.4222431 Z" />
    </clipPath>
    <clipPath
       clipPathUnits="userSpaceOnUse"
       id="clipPath16012">
      <circle
         style="display:none;fill:#ffffff;stroke:#ffffff;stroke-width:0.223;stroke-linecap:round;stroke-opacity:1"
         id="circle16014"
         r="0.15975742"
         cy="2.4222431"
         cx="2.061419"
         transform="rotate(-90)"
         d="M 2.2211764,2.4222431 A 0.15975742,0.15975742 0 0 1 2.061419,2.5820005 0.15975742,0.15975742 0 0 1 1.9016616,2.4222431 0.15975742,0.15975742 0 0 1 2.061419,2.2624857 0.15975742,0.15975742 0 0 1 2.2211764,2.4222431 Z" />
      <path
         id="lpe_path-effect16032"
         style="fill:#ffffff;stroke:#ffffff;stroke-width:0.223;stroke-linecap:round;stroke-opacity:1"
         class="powerclip"
         d="M -2.8205585,-8.5411341 H 7.6735587 V 4.4472625 H -2.8205585 Z M 2.2211764,2.4222431 A 0.15975742,0.15975742 0 0 0 2.061419,2.2624857 0.15975742,0.15975742 0 0 0 1.9016616,2.4222431 0.15975742,0.15975742 0 0 0 2.061419,2.5820005 0.15975742,0.15975742 0 0 0 2.2211764,2.4222431 Z" />
    </clipPath>
    <clipPath
       clipPathUnits="userSpaceOnUse"
       id="clipPath16016">
      <circle
         style="display:none;fill:#ffffff;stroke:#ffffff;stroke-width:0.223;stroke-linecap:round;stroke-opacity:1"
         id="circle16018"
         r="0.15975742"
         cy="2.4222431"
         cx="2.061419"
         d="M 2.2211764,2.4222431 A 0.15975742,0.15975742 0 0 1 2.061419,2.5820005 0.15975742,0.15975742 0 0 1 1.9016616,2.4222431 0.15975742,0.15975742 0 0 1 2.061419,2.2624857 0.15975742,0.15975742 0 0 1 2.2211764,2.4222431 Z" />
      <path
         id="lpe_path-effect16036"
         style="fill:#ffffff;stroke:#ffffff;stroke-width:0.223;stroke-linecap:round;stroke-opacity:1"
         class="powerclip"
         d="M -4.2168581,-3.8334405 H 8.34499 V 8.7284076 H -4.2168581 Z M 2.2211764,2.4222431 A 0.15975742,0.15975742 0 0 0 2.061419,2.2624857 0.15975742,0.15975742 0 0 0 1.9016616,2.4222431 0.15975742,0.15975742 0 0 0 2.061419,2.5820005 0.15975742,0.15975742 0 0 0 2.2211764,2.4222431 Z" />
    </clipPath>
    <clipPath
       clipPathUnits="userSpaceOnUse"
       id="clipPath16020">
      <circle
         style="display:none;fill:#ffffff;stroke:#ffffff;stroke-width:0.223;stroke-linecap:round;stroke-opacity:1"
         id="circle16022"
         r="0.15975742"
         cy="2.4222431"
         cx="2.061419"
         transform="rotate(-135)"
         d="M 2.2211764,2.4222431 A 0.15975742,0.15975742 0 0 1 2.061419,2.5820005 0.15975742,0.15975742 0 0 1 1.9016616,2.4222431 0.15975742,0.15975742 0 0 1 2.061419,2.2624857 0.15975742,0.15975742 0 0 1 2.2211764,2.4222431 Z" />
      <path
         id="lpe_path-effect16040"
         style="fill:#ffffff;stroke:#ffffff;stroke-width:0.223;stroke-linecap:round;stroke-opacity:1"
         class="powerclip"
         d="M -4.9978371,-9.6701758 H 5.4962802 V 3.3182208 H -4.9978371 Z M 2.2211764,2.4222431 A 0.15975742,0.15975742 0 0 0 2.061419,2.2624857 0.15975742,0.15975742 0 0 0 1.9016616,2.4222431 0.15975742,0.15975742 0 0 0 2.061419,2.5820005 0.15975742,0.15975742 0 0 0 2.2211764,2.4222431 Z" />
    </clipPath>
    <clipPath
       clipPathUnits="userSpaceOnUse"
       id="clipPath16024">
      <circle
         style="display:none;fill:#ffffff;stroke:#ffffff;stroke-width:0.223;stroke-linecap:round;stroke-opacity:1"
         id="circle16026"
         r="0.15975742"
         cy="2.4222431"
         cx="2.061419"
         d="M 2.2211764,2.4222431 A 0.15975742,0.15975742 0 0 1 2.061419,2.5820005 0.15975742,0.15975742 0 0 1 1.9016616,2.4222431 0.15975742,0.15975742 0 0 1 2.061419,2.2624857 0.15975742,0.15975742 0 0 1 2.2211764,2.4222431 Z" />
      <path
         id="lpe_path-effect16044"
         style="fill:#ffffff;stroke:#ffffff;stroke-width:0.223;stroke-linecap:round;stroke-opacity:1"
         class="powerclip"
         d="M -3.1910856,-4.0676982 H 7.3030317 V 8.9206984 H -3.1910856 Z m 5.412262,6.4899413 A 0.15975742,0.15975742 0 0 0 2.061419,2.2624857 0.15975742,0.15975742 0 0 0 1.9016616,2.4222431 0.15975742,0.15975742 0 0 0 2.061419,2.5820005 0.15975742,0.15975742 0 0 0 2.2211764,2.4222431 Z" />
    </clipPath>
    <clipPath
       clipPathUnits="userSpaceOnUse"
       id="clipPath16099">
      <circle
         style="display:none;fill:#ffffff;stroke:#ffffff;stroke-width:0.223;stroke-linecap:round;stroke-opacity:1"
         id="circle16101"
         cx="2.0966406"
         cy="2.4174628"
         r="0.38860151" />
      <path
         id="lpe_path-effect16103"
         style="fill:#ffffff;stroke:#ffffff;stroke-width:0.223;stroke-linecap:round;stroke-opacity:1"
         class="powerclip"
         d="M -4.4472625,-4.0676982 H 8.5411341 V 8.9206984 H -4.4472625 Z m 6.9325046,6.485161 A 0.38860151,0.38860151 0 0 0 2.0966406,2.0288613 0.38860151,0.38860151 0 0 0 1.7080391,2.4174628 0.38860151,0.38860151 0 0 0 2.0966406,2.8060643 0.38860151,0.38860151 0 0 0 2.4852421,2.4174628 Z" />
    </clipPath>
  </defs>
  <g
     id="layer1">
    <g
       id="g16085"
       clip-path="url(#clipPath16099)"
       transform="matrix(1.2480509,0,0,1.2480509,-0.50774424,-0.6018955)">
      <path
         style="fill:#ffffff;stroke:#ffffff;stroke-width:0.223;stroke-linecap:round;stroke-opacity:1"
         id="rect15856-5"
         width="0.27111724"
         height="2.7653966"
         x="2.9861014"
         y="-1.1175009"
         transform="rotate(45)"
         clip-path="url(#clipPath16008)"
         d="m 2.9861014,-1.1175009 0.2711172,0 0,2.7653966 -0.2711172,0 z" />
      <path
         style="fill:#ffffff;stroke:#ffffff;stroke-width:0.223;stroke-linecap:round;stroke-opacity:1"
         id="rect15856-2"
         width="0.27111724"
         height="2.7653966"
         x="2.2909415"
         y="-3.4296341"
         transform="rotate(90)"
         clip-path="url(#clipPath16012)"
         d="m 2.2909415,-3.4296341 h 0.2711172 v 2.7653966 H 2.2909415 Z" />
      <path
         style="fill:#ffffff;stroke:#ffffff;stroke-width:0.194391;stroke-linecap:round;stroke-opacity:1"
         id="path15601"
         clip-path="url(#clipPath16016)"
         d="M 3.2477945,2.4474835 A 1.1837286,1.1837286 0 0 1 2.0640659,3.6312121 1.1837286,1.1837286 0 0 1 0.88033736,2.4474835 1.1837286,1.1837286 0 0 1 2.0640659,1.263755 1.1837286,1.1837286 0 0 1 3.2477945,2.4474835 Z" />
      <path
         style="fill:#ffffff;stroke:#ffffff;stroke-width:0.223;stroke-linecap:round;stroke-opacity:1"
         id="rect15856-5-9"
         width="0.27111724"
         height="2.7653966"
         x="0.11366291"
         y="-4.5586758"
         transform="rotate(135)"
         clip-path="url(#clipPath16020)"
         d="m 0.11366291,-4.5586758 h 0.27111724 l 0,2.7653966 H 0.11366291 Z" />
      <path
         style="fill:#ffffff;stroke:#ffffff;stroke-width:0.223;stroke-linecap:round;stroke-opacity:1"
         id="rect15856"
         width="0.27111724"
         height="2.7653966"
         x="1.9204144"
         y="1.0438018"
         clip-path="url(#clipPath16024)"
         d="M 1.9204144,1.0438018 H 2.1915317 V 3.8091984 H 1.9204144 Z" />
    </g>
  </g>
</svg>
